<?xml version="1.0" encoding="UTF-8" standalone="no"?>
<!-- Created with Inkscape (http://www.inkscape.org/) -->

<svg
   width="512"
   height="512"
   viewBox="0 0 135.46666 135.46667"
   version="1.1"
   id="svg5"
   sodipodi:docname="favicon.svg"
   inkscape:version="1.2.1 (9c6d41e4, 2022-07-14)"
   xmlns:inkscape="http://www.inkscape.org/namespaces/inkscape"
   xmlns:sodipodi="http://sodipodi.sourceforge.net/DTD/sodipodi-0.dtd"
   xmlns="http://www.w3.org/2000/svg"
   xmlns:svg="http://www.w3.org/2000/svg">
  <sodipodi:namedview
     id="namedview7"
     pagecolor="#ffffff"
     bordercolor="#666666"
     borderopacity="1.0"
     inkscape:showpageshadow="2"
     inkscape:pageopacity="0.0"
     inkscape:pagecheckerboard="0"
     inkscape:deskcolor="#d1d1d1"
     inkscape:document-units="mm"
     showgrid="false"
     inkscape:zoom="0.90442393"
     inkscape:cx="244.90728"
     inkscape:cy="254.85836"
     inkscape:window-width="1440"
     inkscape:window-height="769"
     inkscape:window-x="0"
     inkscape:window-y="25"
     inkscape:window-maximized="1"
     inkscape:current-layer="layer1" />
  <defs
     id="defs2">
    <rect
       x="34.275962"
       y="48.649752"
       width="426.79101"
       height="400.25478"
       id="rect242" />
    <rect
       x="57.495162"
       y="56.389486"
       width="403.57181"
       height="401.36046"
       id="rect236" />
  </defs>
  <g
     inkscape:label="Lager 1"
     inkscape:groupmode="layer"
     id="layer1">
    <text
       xml:space="preserve"
       transform="scale(0.26458333)"
       id="text234"
       style="fill:black;fill-opacity:1;line-height:1.25;stroke:none;font-family:sans-serif;font-style:normal;font-weight:normal;font-size:40px;white-space:pre;shape-inside:url(#rect236)" />
    <path
       d="m 61.498219,33.053034 q 0,9.787964 -1.5604,19.292221 -1.489473,9.504257 -3.617292,18.937586 -0.283709,0.922055 -0.354636,1.560402 -0.425564,2.056888 -0.922055,4.255638 -0.425564,2.127816 -1.418546,4.255637 -0.922055,1.773181 -2.553382,3.120799 -1.5604,1.276689 -3.475437,1.276689 -0.7802,0 -1.631327,-0.354635 -0.851128,-0.354635 -1.84411,-0.922054 -1.418545,-0.992983 -2.127818,-2.695236 -0.709273,-1.773186 -1.205764,-3.617295 l -0.141855,-0.496491 v 0.07093 q -1.205764,-4.610275 -2.056891,-9.220547 -0.7802,-4.610272 -1.5604,-9.291473 -0.425564,-2.90802 -0.851128,-5.745111 -0.425563,-2.90802 -0.992982,-5.745111 l -0.992982,-4.18471 q -0.354636,-1.418545 -0.7802,-3.049875 -0.354636,-1.702253 -0.709272,-3.191727 -0.354637,-1.489474 -0.567419,-2.624307 -0.212782,-1.205767 -0.212782,-1.63133 0,-1.347618 0.851128,-1.773181 0.922054,-0.496492 2.056891,-0.496492 2.269673,0 3.971928,0.992983 1.773182,0.992983 2.553382,3.262655 0.425564,1.205761 0.709273,2.553384 0.354636,1.347618 0.567418,2.695236 1.205764,4.6812 2.269673,9.92982 1.134837,5.177692 1.915037,10.000743 l 0.638346,3.617295 q 0.07093,0.354636 0.07093,0.56742 0,0.212779 0,0.354635 0.07093,0.141856 0.07093,0.354635 0.07093,0.212784 0.141855,0.638348 1.5604,-7.518293 2.624309,-15.036585 1.063909,-7.58922 1.063909,-15.249368 0,-1.560402 -0.212781,-3.04987 -0.141855,-1.489474 -0.354637,-3.120804 -0.212782,-1.489474 -0.425563,-3.049871 -0.141855,-1.63133 -0.141855,-3.262655 0,-1.489473 0.922055,-2.056893 0.922054,-0.567419 2.269673,-0.567419 1.631327,0 2.978945,0.212784 1.347619,0.212779 2.340601,0.851126 0.992982,0.56742 1.631328,1.702253 0.638345,1.063911 0.851127,2.837092 0.141855,1.63133 0.141855,3.546367 0.07093,1.844109 0.07093,3.546362 z"
       style="font-size:266.667px;line-height:1.25;font-family:'Just Another Hand';-inkscape-font-specification:'Just Another Hand';white-space:pre;fill:#c82d2d;stroke-width:0.544721"
       id="path3210" />
    <path
       d="m 84.282789,66.034222 q 0,3.40451 -0.07093,6.241602 0,2.837092 0.141856,6.241603 l 1.27669,-0.922055 0.780198,-0.496491 q 3.475439,-2.766169 6.028818,-6.738094 2.624313,-4.042853 4.326566,-8.582203 1.702258,-4.539344 2.482459,-9.291473 0.851124,-4.823056 0.851124,-9.149622 0,-0.851126 -0.0709,-2.3406 0,-1.560397 -0.283704,-3.049871 -0.28371,-1.489473 -0.85113,-2.553384 -0.567419,-1.134833 -1.63133,-1.134833 -1.702253,0 -3.475434,2.056887 -1.773186,2.056894 -3.333583,4.893985 -1.489474,2.837092 -2.69524,5.745111 -1.205762,2.837092 -1.773181,4.468417 0,0.07093 -0.07093,0.07093 0,0 0,0.07093 v 0.07093 q -0.425564,0.992982 -0.922055,2.127816 -0.425563,1.134839 -0.567414,2.127821 -0.141856,0.992983 -0.212784,2.269672 -0.07093,1.205762 -0.07093,2.553379 0,0.709276 0,1.418546 0.07093,0.638348 0.07093,1.205767 0,0.780198 0,1.489474 0.07093,0.638342 0.07093,1.205762 z m 3.901002,64.827538 q 0,1.5604 -0.851132,2.12782 -0.851126,0.56742 -2.269672,0.56742 -1.702253,0 -3.759146,-0.56742 -2.056888,-0.49649 -3.262655,-1.91504 -0.354635,-0.49649 -0.70927,-2.90802 -0.283712,-2.41153 -0.567419,-5.67418 -0.283713,-3.19173 -0.496491,-6.66717 -0.212785,-3.4045 -0.425564,-6.02881 l -0.283712,-3.75915 q -0.851125,-15.17844 -0.851125,-30.356875 0,-8.865915 0.283709,-17.377184 0.354637,-8.582203 0.709272,-17.37719 l 0.283707,-7.447364 q 0,-1.134834 0,-2.198744 0.07093,-1.134839 0.283713,-2.198744 0.354635,-0.922055 0.851126,-1.418546 0.567419,-0.567419 1.773181,-0.567419 3.049876,0 4.468421,1.844109 1.418546,1.77318 1.631325,4.397493 2.269672,-3.120804 5.390476,-4.964913 3.191727,-1.844109 7.305508,-1.844109 3.475447,0 5.816047,1.560402 2.41152,1.560397 3.83007,4.042853 1.41855,2.411529 1.98597,5.461404 0.63834,2.978943 0.63834,5.886962 0,5.603255 -0.99298,11.20651 -0.99299,5.532327 -3.1208,10.780947 -2.0569,5.177692 -5.24862,9.858892 -3.191734,4.610278 -7.518299,8.227568 -0.56742,0.496491 -1.347618,1.063911 -0.780198,0.567414 -1.63133,1.063905 -0.851127,0.496491 -1.773181,0.851132 -0.851126,0.354635 -1.560397,0.354635 -0.780203,0 -1.347623,-0.354635 -0.567414,-0.354641 -0.992977,-0.851132 0.141851,4.893985 0.354635,10.142605 0.283707,5.248617 0.638342,10.497237 0.354641,5.31955 0.851132,10.49724 0.567414,5.17769 1.347618,10.00075 0.212779,0.92205 0.354635,1.91503 0.212784,1.06391 0.212784,2.12782 z"
       style="font-size:266.667px;line-height:1.25;font-family:'Just Another Hand';-inkscape-font-specification:'Just Another Hand';white-space:pre;fill:#c82d2d;stroke-width:0.544721"
       id="path3212" />
  </g>
</svg>
